<?xml version="1.0" encoding="UTF-8" standalone="no"?>
<!DOCTYPE svg PUBLIC "-//W3C//DTD SVG 1.1//EN" "http://www.w3.org/Graphics/SVG/1.1/DTD/svg11.dtd">
<!-- Created with Vectornator (http://vectornator.io/) -->
<svg height="100%" stroke-miterlimit="10" style="fill-rule:nonzero;clip-rule:evenodd;stroke-linecap:round;stroke-linejoin:round;" version="1.1" viewBox="0 0 512 512" width="100%" xml:space="preserve" xmlns="http://www.w3.org/2000/svg" xmlns:vectornator="http://vectornator.io" xmlns:xlink="http://www.w3.org/1999/xlink">
<defs/>
<g id="Слой-1" vectornator:layerName="Слой 1">
<path d="M2.74859 122.731C2.74859 56.4567 56.4744 2.73089 122.749 2.73089L388.437 2.73089C454.711 2.73089 508.437 56.4567 508.437 122.731L508.437 388.419C508.437 454.694 454.711 508.419 388.437 508.419L122.749 508.419C56.4744 508.419 2.74859 454.694 2.74859 388.419L2.74859 122.731Z" fill="#1c1c1e" fill-rule="nonzero" opacity="1" stroke="none" vectornator:layerName="Прямоугольник 1"/>
<path d="M190.253 192.427C190.253 179.227 191.852 166.458 195.051 154.121C198.249 141.785 202.895 130.133 208.987 119.167C209.901 117.542 210.129 116.045 209.672 114.674C209.215 113.303 208.301 112.364 206.931 111.856C205.56 111.348 203.91 111.602 201.981 112.618C185.227 121.147 170.428 132.418 157.583 146.43C144.739 160.442 134.712 176.333 127.502 194.102C120.293 211.871 116.689 230.757 116.689 250.76C116.689 271.982 120.75 291.96 128.873 310.693C136.996 329.427 148.216 345.952 162.533 360.269C176.85 374.586 193.375 385.806 212.109 393.929C230.843 402.052 250.821 406.114 272.042 406.114C288.085 406.114 303.468 403.702 318.191 398.879C332.914 394.056 346.546 387.304 359.086 378.622C371.626 369.941 382.617 359.711 392.06 347.932C393.076 346.714 393.609 345.496 393.659 344.277C393.71 343.059 393.228 342.094 392.212 341.383C391.197 340.672 389.674 340.571 387.643 341.079C380.942 343.312 374.088 344.988 367.082 346.105C360.076 347.222 352.917 347.78 345.606 347.78C324.385 347.78 304.407 343.719 285.674 335.596C266.94 327.473 250.414 316.253 236.098 301.936C221.781 287.619 210.561 271.093 202.438 252.36C194.315 233.626 190.253 213.648 190.253 192.427Z" fill="#efeff1" opacity="1" stroke="none" vectornator:layerName="Текст 1"/>
</g>
<g id="Слой-1-скопировать" vectornator:layerName="Слой 1 скопировать" visibility="hidden">
<path d="M2.74859 122.731C2.74859 56.4567 56.4744 2.73089 122.749 2.73089L388.437 2.73089C454.711 2.73089 508.437 56.4567 508.437 122.731L508.437 388.419C508.437 454.694 454.711 508.419 388.437 508.419L122.749 508.419C56.4744 508.419 2.74859 454.694 2.74859 388.419L2.74859 122.731Z" fill="#f7f7f8" fill-rule="nonzero" opacity="1" stroke="none" vectornator:layerName="Прямоугольник 1"/>
<path d="M268.762 124.919C268.762 121.767 267.623 119.074 265.346 116.841C263.069 114.608 260.355 113.491 257.202 113.491C254.137 113.491 251.466 114.608 249.189 116.841C246.912 119.074 245.774 121.767 245.774 124.919L245.774 152.505C245.774 155.658 246.912 158.35 249.189 160.584C251.466 162.817 254.137 163.933 257.202 163.933C260.355 163.933 263.069 162.817 265.346 160.584C267.623 158.35 268.762 155.658 268.762 152.505L268.762 124.919ZM268.762 359.528C268.762 356.375 267.623 353.682 265.346 351.449C263.069 349.216 260.355 348.099 257.202 348.099C254.137 348.099 251.466 349.216 249.189 351.449C246.912 353.682 245.774 356.375 245.774 359.528L245.774 387.113C245.774 390.266 246.912 392.959 249.189 395.192C251.466 397.425 254.137 398.542 257.202 398.542C260.355 398.542 263.069 397.425 265.346 395.192C267.623 392.959 268.762 390.266 268.762 387.113L268.762 359.528ZM387.905 267.445C391.057 267.445 393.772 266.328 396.049 264.095C398.326 261.862 399.464 259.169 399.464 256.016C399.464 252.951 398.326 250.28 396.049 248.003C393.772 245.726 391.057 244.588 387.905 244.588L360.451 244.588C357.386 244.588 354.715 245.726 352.438 248.003C350.161 250.28 349.022 252.951 349.022 256.016C349.022 259.169 350.161 261.862 352.438 264.095C354.715 266.328 357.386 267.445 360.451 267.445L387.905 267.445ZM126.499 244.588C123.434 244.588 120.763 245.726 118.486 248.003C116.209 250.28 115.071 252.951 115.071 256.016C115.071 259.169 116.209 261.862 118.486 264.095C120.763 266.328 123.434 267.445 126.499 267.445L153.953 267.445C157.106 267.445 159.821 266.328 162.098 264.095C164.374 261.862 165.513 259.169 165.513 256.016C165.513 252.951 164.374 250.28 162.098 248.003C159.821 245.726 157.106 244.588 153.953 244.588L126.499 244.588ZM176.022 191.125C178.211 193.314 180.904 194.409 184.1 194.409C187.297 194.409 189.99 193.314 192.179 191.125C194.368 189.023 195.485 186.352 195.529 183.112C195.572 179.872 194.5 177.157 192.31 174.967L172.738 155.263C170.636 153.162 167.987 152.089 164.79 152.045C161.594 152.001 158.857 153.074 156.58 155.263C154.391 157.453 153.296 160.168 153.296 163.408C153.296 166.648 154.347 169.319 156.449 171.421L176.022 191.125ZM322.094 174.967C319.904 177.157 318.81 179.85 318.81 183.046C318.81 186.242 319.904 188.935 322.094 191.125C324.283 193.314 326.976 194.431 330.172 194.474C333.369 194.518 336.105 193.402 338.382 191.125L357.955 171.552C360.144 169.363 361.239 166.648 361.239 163.408C361.239 160.168 360.144 157.453 357.955 155.263C355.765 153.074 353.094 151.98 349.942 151.98C346.789 151.98 344.118 153.074 341.929 155.263L322.094 174.967ZM338.251 321.039C336.061 318.85 333.369 317.755 330.172 317.755C326.976 317.755 324.283 318.85 322.094 321.039C319.904 323.229 318.81 325.922 318.81 329.118C318.81 332.314 319.904 335.007 322.094 337.197L341.929 356.901C344.118 359.09 346.789 360.163 349.942 360.119C353.094 360.075 355.765 358.958 357.955 356.769C360.144 354.58 361.239 351.887 361.239 348.691C361.239 345.494 360.144 342.801 357.955 340.612L338.251 321.039ZM156.449 340.481C154.26 342.67 153.165 345.363 153.165 348.559C153.165 351.756 154.216 354.448 156.318 356.638C158.507 358.827 161.222 359.944 164.462 359.987C167.702 360.031 170.417 358.958 172.606 356.769L192.179 337.197C194.368 335.007 195.485 332.314 195.529 329.118C195.572 325.922 194.5 323.229 192.31 321.039C190.121 318.85 187.406 317.755 184.166 317.755C180.926 317.755 178.211 318.85 176.022 321.039L156.449 340.481ZM257.202 189.023C248.007 189.023 239.381 190.774 231.324 194.277C223.267 197.78 216.152 202.597 209.978 208.727C203.804 214.857 198.966 221.972 195.463 230.073C191.96 238.173 190.208 246.821 190.208 256.016C190.208 265.212 191.96 273.859 195.463 281.96C198.966 290.06 203.804 297.198 209.978 303.371C216.152 309.545 223.267 314.384 231.324 317.887C239.381 321.39 248.007 323.141 257.202 323.141C266.31 323.141 274.914 321.39 283.014 317.887C291.115 314.384 298.23 309.545 304.36 303.371C310.49 297.198 315.307 290.06 318.81 281.96C322.312 273.859 324.064 265.212 324.064 256.016C324.064 246.821 322.312 238.173 318.81 230.073C315.307 221.972 310.49 214.857 304.36 208.727C298.23 202.597 291.115 197.78 283.014 194.277C274.914 190.774 266.31 189.023 257.202 189.023Z" fill="#10100e" opacity="1" stroke="none" vectornator:layerName="Текст 2"/>
</g>
</svg>
